<?xml version="1.0" standalone="no"?>
<!DOCTYPE svg PUBLIC "-//W3C//DTD SVG 20010904//EN"
 "http://www.w3.org/TR/2001/REC-SVG-20010904/DTD/svg10.dtd">
<svg version="1.0" xmlns="http://www.w3.org/2000/svg"
 width="512.000000pt" height="512.000000pt" viewBox="0 0 512.000000 512.000000"
 preserveAspectRatio="xMidYMid meet">

<g transform="translate(0.000000,512.000000) scale(0.100000,-0.100000)"
fill="#000000" stroke="none">
<path d="M2186 4079 c-108 -26 -217 -114 -263 -215 -35 -78 -43 -148 -43 -421
l0 -243 110 0 110 0 0 270 c0 250 2 274 20 310 24 47 63 76 121 89 26 6 222
11 480 11 l437 0 4 -237 c4 -214 7 -244 26 -292 44 -111 121 -189 229 -232 55
-22 74 -24 331 -27 l272 -3 0 -837 c0 -545 -4 -850 -10 -874 -13 -45 -51 -93
-94 -116 -28 -16 -97 -17 -826 -20 -529 -2 -810 1 -843 8 -27 6 -62 20 -78 31
-37 26 -69 88 -69 134 l0 35 -110 0 -110 0 6 -57 c18 -155 94 -261 233 -327
l66 -31 840 -3 c613 -2 855 0 895 8 118 26 221 108 274 220 l31 65 3 960 2
959 -420 421 -420 420 -582 2 c-328 1 -600 -3 -622 -8z m1512 -767 c-185 -4
-208 0 -255 41 -57 50 -63 75 -63 264 l0 168 235 -235 235 -235 -152 -3z"/>
<path d="M1335 2656 c-143 -35 -254 -143 -290 -281 -11 -45 -15 -114 -15 -292
l0 -233 105 0 104 0 3 123 3 122 178 3 177 2 0 -125 0 -125 105 0 106 0 -3
263 -3 262 -31 65 c-54 115 -159 197 -283 220 -66 12 -92 12 -156 -4z m158
-220 c39 -16 97 -79 97 -106 0 -19 -8 -20 -171 -20 l-170 0 7 23 c28 92 143
143 237 103z"/>
<path d="M2394 2655 c-84 -18 -157 -57 -222 -118 -249 -236 -162 -642 163
-767 50 -19 85 -24 213 -28 l152 -4 0 111 0 111 -135 0 c-150 0 -178 7 -239
60 -58 51 -80 103 -80 185 0 84 23 135 84 187 55 48 98 58 244 58 l126 0 0
110 0 110 -122 -1 c-68 0 -150 -7 -184 -14z"/>
<path d="M3082 2655 c-60 -26 -62 -42 -62 -445 l0 -360 110 0 110 0 1 193 0
192 32 -39 c65 -80 83 -97 112 -105 55 -15 89 3 147 79 l53 70 3 -195 2 -195
105 0 105 0 0 374 0 374 -25 30 c-30 36 -66 47 -110 32 -26 -9 -58 -43 -141
-151 -59 -76 -109 -139 -110 -139 -2 0 -48 57 -102 128 -55 70 -108 135 -119
144 -28 25 -73 30 -111 13z"/>
</g>
</svg>
