<?xml version="1.0" standalone="no"?>
<!DOCTYPE svg PUBLIC "-//W3C//DTD SVG 20010904//EN"
 "http://www.w3.org/TR/2001/REC-SVG-20010904/DTD/svg10.dtd">
<svg version="1.0" xmlns="http://www.w3.org/2000/svg"
 width="512.000000pt" height="512.000000pt" viewBox="0 0 512.000000 512.000000"
 preserveAspectRatio="xMidYMid meet">

<g transform="translate(0.000000,512.000000) scale(0.100000,-0.100000)"
fill="#000000" stroke="none">
<path d="M1992 4836 c-161 -40 -310 -159 -380 -307 -22 -46 -45 -108 -51 -137
-7 -33 -11 -213 -11 -486 0 -433 0 -433 23 -466 33 -50 70 -72 124 -77 59 -5
117 25 147 77 20 33 21 54 26 470 5 399 7 438 24 473 25 50 105 120 154 135
29 9 225 12 730 12 l691 0 3 -357 c3 -343 4 -361 25 -417 66 -174 206 -312
372 -368 63 -22 84 -23 474 -26 l407 -3 0 -1254 c0 -865 -3 -1270 -11 -1305
-15 -68 -64 -138 -123 -175 l-49 -30 -1236 -3 c-927 -2 -1247 0 -1279 9 -52
14 -133 84 -157 136 -10 21 -22 76 -26 124 -3 47 -14 99 -23 116 -38 74 -140
104 -213 64 -63 -37 -78 -64 -82 -160 -4 -110 12 -188 60 -288 73 -153 233
-278 397 -312 37 -8 440 -11 1304 -11 1103 0 1257 2 1311 16 202 52 361 207
424 414 16 50 18 172 21 1440 2 1011 0 1396 -8 1425 -10 34 -104 133 -618 648
-334 335 -619 615 -634 623 -38 20 -1733 20 -1816 0z m2486 -1154 c-18 -2
-134 -2 -258 0 -251 5 -267 8 -340 74 -83 75 -85 84 -88 384 l-3 265 361 -360
c353 -352 360 -360 328 -363z"/>
<path d="M702 2700 c-161 -42 -298 -155 -373 -305 -57 -115 -59 -135 -59 -558
0 -428 -1 -423 63 -471 78 -60 188 -34 234 54 22 41 23 54 23 247 l0 203 264
0 265 0 3 -218 3 -219 27 -35 c71 -94 214 -82 269 22 18 32 19 64 19 401 0
215 -4 390 -11 425 -6 32 -29 97 -51 144 -120 251 -404 381 -676 310z m218
-310 c65 -18 127 -66 159 -122 17 -29 31 -59 31 -65 0 -10 -58 -13 -255 -13
-290 0 -280 -4 -226 82 64 100 182 148 291 118z"/>
<path d="M2300 2704 c-36 -7 -108 -35 -160 -60 -231 -115 -379 -355 -380 -617
-1 -313 211 -587 520 -673 54 -16 104 -19 307 -19 230 0 243 1 270 21 98 73
99 214 1 274 -30 18 -51 20 -208 20 -220 0 -295 11 -372 52 -124 66 -191 180
-192 328 -1 77 2 92 31 151 39 80 111 150 191 187 55 26 64 27 287 32 217 5
232 6 266 28 50 30 72 81 67 147 -5 60 -27 95 -79 124 -34 20 -52 21 -260 20
-151 0 -245 -5 -289 -15z"/>
<path d="M3360 2713 c-37 -14 -74 -49 -91 -87 -17 -38 -19 -77 -19 -602 l0
-561 23 -44 c47 -88 164 -114 237 -52 55 46 55 45 60 393 l5 325 78 -100 c86
-111 120 -135 187 -135 67 0 101 24 187 135 l78 100 5 -325 c5 -348 5 -347 60
-393 73 -62 190 -36 237 52 l23 44 0 561 c0 525 -2 564 -19 602 -24 53 -71 86
-131 92 -81 7 -107 -15 -279 -239 -85 -109 -157 -199 -161 -199 -4 0 -75 89
-159 198 -95 122 -166 205 -189 219 -36 22 -97 29 -132 16z"/>
</g>
</svg>
